<?xml version="1.0" encoding="utf-8" ?>
<svg xmlns="http://www.w3.org/2000/svg" xmlns:xlink="http://www.w3.org/1999/xlink" width="64" height="64">
	<path fill="#A4B6B8" transform="scale(0.0625 0.0625)" d="M-0 -0L1024 0L1024 1024L-0 1024L0 -0Z"/>
	<path fill="#80786E" transform="scale(0.0625 0.0625)" d="M114.038 676.074C110.984 671.52 109.089 665.84 106.976 660.794C94.0824 629.993 85.9076 597.284 81.2627 564.258C74.317 514.872 77.4525 462.701 89.3237 414.282C92.5036 401.312 96.7487 388.493 101.058 375.858L109.624 353.564C110.513 351.45 111.469 348.242 112.907 346.49C114.054 345.092 114.149 343.869 114.363 342.119L114.456 341.321L114.038 676.074Z"/>
	<path transform="scale(0.0625 0.0625)" d="M114.456 341.321L114.474 276.59L114.485 252.685C114.497 245.194 114.324 238.283 116.332 230.99C119.036 221.174 124.787 212.213 132.525 205.6C138.699 200.324 146.398 195.965 154.413 194.332C156.834 193.839 159.301 193.618 161.76 193.41C161.858 193.402 163.513 193.271 163.514 193.268C164.288 192.286 162.75 160.238 164.007 155.25C164.467 153.426 165.569 152.025 166.87 150.703C168.358 149.191 170.25 147.684 172.355 147.181C177.488 145.956 184.791 146.881 190.121 146.885L233.114 146.942L235.772 144.171L280.132 99.6463L293.797 85.8513C296.359 83.2642 298.917 80.1794 301.866 78.0554C303.899 76.5915 306.223 75.8126 308.728 75.8451C311.393 75.8797 313.81 76.9466 315.927 78.5085C319.446 81.1039 322.402 85.099 325.561 88.183L353.215 115.355C370.025 105.449 389.504 99.6729 408.263 94.6818C478.39 76.0233 551.067 75.2095 621.442 93.3006C642.85 98.804 665.142 105.778 685.089 115.366C688.389 116.952 692.192 118.421 695.142 120.57L736.675 120.924L808.288 121.029L834.853 121.024C839.343 121.025 844.124 120.658 848.561 121.241C851.685 121.651 853.907 122.825 856.056 125.154C857.755 126.995 859.194 129.539 859.603 132.027C860.251 135.967 859.772 140.636 859.736 144.659L859.643 167.225L859.831 252.388C862.713 255.603 865.084 259.237 867.606 262.735L882.504 285C928.231 357.422 951.434 447.767 946.468 533.25C943.874 577.883 934.584 620.629 918.889 662.457C916.613 668.522 914.409 677.121 910.456 682.169L910.473 744.992C910.48 753.827 911.263 763.486 910.405 772.236C910.21 774.214 909.307 776.067 908.22 777.703C906.387 780.466 903.567 782.727 900.358 783.644C897.508 784.459 893.757 784.019 890.752 784.025L869.167 784.043C864.222 784.047 858.958 783.773 854.103 784.844C845.009 786.849 836.88 793.119 831.945 800.895C826.166 810.001 824.373 820.266 826.823 830.803C829.539 842.48 838.774 853.586 850.05 857.902C853.728 859.31 857.504 859.207 860.907 861.491C863.634 863.321 865.702 866.601 866.148 869.869C867.194 877.536 866.329 886.537 866.33 894.329L866.316 914.665C866.309 918.824 866.565 923.18 865.987 927.3C865.68 929.497 864.809 931.862 863.421 933.6C861.365 936.173 858.009 937.826 854.731 938.022C840.545 938.872 825.807 938.138 811.569 938.119L727.315 938.042L468.648 938.061L286.052 938.068L229.329 938.146C220.228 938.171 210.511 938.96 201.486 938.099C191.942 937.188 183.466 932.04 176.37 925.93L148.722 899.829L132.869 884.96C127.768 880.086 122.786 875.246 119.501 868.916C116.605 863.336 115.15 856.818 114.619 850.576C114.238 846.084 114.498 841.386 114.494 836.874L114.481 810.861L114.473 724.108C114.469 708.255 115.203 691.869 114.038 676.074L114.456 341.321Z"/>
	<path fill="#C0A276" transform="scale(0.0625 0.0625)" d="M317.053 256.384L317.103 237.097L562.147 476.501L541.391 476.452C540.969 474.478 538.367 471.745 536.96 470.25L490.653 424.356L384.893 321.253L340.283 278.092L326.46 265.059C323.411 262.126 320.49 258.858 317.053 256.384Z"/>
	<path fill="#A4B6B8" transform="scale(0.0625 0.0625)" d="M556.7 315.324L529.484 289.347L529.509 146.309L556.972 146.243L556.7 315.324Z"/>
	<path fill="#A4B6B8" transform="scale(0.0625 0.0625)" d="M366.872 758.514L366.766 591.89L366.744 553.413L366.75 540.96C366.755 538.306 366.583 535.324 367.658 532.837C369.631 528.276 374.015 526.016 378.391 524.231L378.808 524.531C381.649 526.492 385.319 527.055 387.951 529.054L388.021 758.504L366.872 758.514Z"/>
	<path fill="#3A3A3A" transform="scale(0.0625 0.0625)" d="M316.983 181.093L575.424 434.705L575.33 454.537L318.158 203.036C317.584 202.469 317.264 202.274 317.059 201.467C316.655 199.88 317.005 197.242 317.001 195.561L316.983 181.093Z"/>
	<path fill="#A15E0F" transform="scale(0.0625 0.0625)" d="M439.544 522.25C440.482 522.044 440.027 521.981 440.898 522.5L440.914 758.515L414.75 758.509C413.549 758.328 414.103 758.564 413.109 757.75L413.091 535.003L439.544 522.25Z"/>
	<path fill="#80786E" transform="scale(0.0625 0.0625)" d="M151.272 867.025C146.789 862.662 141.313 858.014 139.986 851.596C138.876 846.231 139.565 839.807 139.571 834.302L139.594 801.245L139.57 667.984L139.63 388.149L139.69 288.833L139.784 245.522C139.992 239.682 141.317 234.006 144.633 229.091C149.554 221.796 155.403 219.682 163.77 218.179L163.587 255.677L163.53 255.094L163.315 233.018C159.475 234.156 154.062 235.262 151.875 239C150.24 241.795 150.085 246.075 150.046 249.25L149.925 318.896L149.625 509.943L149.939 655.143L149.517 796.682L149.494 832.866C149.483 844.286 148.913 855.782 151.272 867.025Z"/>
	<path fill="#F8F8F6" transform="scale(0.0625 0.0625)" d="M308.591 106.542C311.634 108.98 314.434 112.273 317.205 115.058L332.474 130.219L387.912 185.049L524.093 318.902L568.013 361.632C570.062 363.684 574.099 366.913 575.5 369.375C576.06 370.358 575.621 374.864 575.62 376.096L575.605 400.219L556.444 381.84L518.307 345.091L424.25 252.902L362.591 192.317L321.677 152.021C320.165 150.581 316.884 146.952 314.812 146.563C311.316 145.906 306.385 146.572 302.75 146.566L269.402 146.49C272.915 141.488 278.128 137.191 282.449 132.85L308.591 106.542Z"/>
	<path fill="#A4B6B8" transform="scale(0.0625 0.0625)" d="M215.17 859.424C209.526 857.358 204.104 854.553 199.75 850.328C191.712 842.529 187.926 831.719 187.958 820.628C187.986 810.814 192.113 802.389 199.023 795.575C205.734 788.957 214.733 785.008 224.092 784.053C230.635 783.385 237.544 783.828 244.138 783.826L281.672 783.827L405.227 783.851L797.149 783.978L813.434 783.996C802.85 799.416 798.47 815.032 801.982 833.765C803.762 843.258 807.833 852.709 814.381 859.9L791.964 859.963C791.624 858.644 790.568 857.531 789.81 856.404C788.102 853.865 786.442 851.256 785.009 848.55C778.288 835.863 778.005 820.855 782.194 807.343L412.302 807.398L288.497 807.46L248.833 807.509C242.241 807.521 235.29 807.093 228.733 807.714C224.031 808.16 220.498 810.603 217.245 813.855C213.41 817.688 211.09 821.672 209.935 827L209.794 827.586C208.334 833.98 209.042 842.743 211.537 848.832C213.014 852.434 214.711 855.483 215.17 859.424Z"/>
	<path fill="#80786E" transform="scale(0.0625 0.0625)" d="M859.831 252.388C862.713 255.603 865.084 259.237 867.606 262.735L882.504 285C928.231 357.422 951.434 447.767 946.468 533.25C943.874 577.883 934.584 620.629 918.889 662.457C916.613 668.522 914.409 677.121 910.456 682.169L910.596 539.996L910.656 504.493C910.664 499.254 911.324 493.125 910.386 488C909.86 485.126 907.97 482.08 905.878 480.075C903.716 478.003 900.675 476.653 897.757 476.059C893.483 475.189 888.424 475.621 884.072 475.625L859.632 475.682L859.831 252.388Z"/>
	<path fill="#80786E" transform="scale(0.0625 0.0625)" d="M353.215 115.355C370.025 105.449 389.504 99.6729 408.263 94.6818C478.39 76.0233 551.067 75.2095 621.442 93.3006C642.85 98.804 665.142 105.778 685.089 115.366C688.389 116.952 692.192 118.421 695.142 120.57L651.245 120.675L565.091 120.938L531.513 120.923C526.331 120.915 520.595 120.406 515.477 121.071C512.947 121.399 510.591 122.579 508.782 124.385C506.736 126.427 504.848 129.851 504.418 132.739C503.74 137.302 504.135 142.325 504.137 146.949L504.159 173.858L504.051 264.13L353.215 115.355Z"/>
	<path fill="#80786E" transform="scale(0.0625 0.0625)" d="M253.077 171.608L291.534 171.68L291.342 758.671L253.259 758.802L253.077 171.608Z"/>
	<path fill="#80786E" transform="scale(0.0625 0.0625)" d="M189 171.799L227.454 171.756L226.976 758.894L217.413 759.897C206.751 761.948 197.97 765.561 188.901 771.505L189 171.799Z"/>
	<path fill="#A4B6B8" transform="scale(0.0625 0.0625)" d="M151.272 867.025C148.913 855.782 149.483 844.286 149.494 832.866L149.517 796.682L149.939 655.143L149.625 509.943L149.925 318.896L150.046 249.25C150.085 246.075 150.24 241.795 151.875 239C154.062 235.262 159.475 234.156 163.315 233.018L163.53 255.094L163.587 255.677L163.556 308.32L163.528 398.728L163.445 701.81L163.397 796.477L163.43 821.683C163.444 827.21 162.934 833.145 164.33 838.517C168.547 854.748 181.383 869.926 195.608 878.426C202.037 882.267 209.525 885.503 217.083 886.07C222.829 886.501 228.758 886.067 234.523 886.043L269.215 886.031L382.517 886.032L688.029 886.045L788.076 886.048L840.829 886.096L840.741 912.677L351.831 912.888L244.318 912.958L217.695 912.958C212.965 912.956 207.335 913.547 202.75 912.46C199.666 911.73 196.318 909.704 193.814 907.804C186.751 902.445 180.343 895.162 173.994 888.951L152.088 867.925L151.272 867.025Z"/>
	<path fill="#F8F8F6" transform="scale(0.0625 0.0625)" d="M215.17 859.424C214.711 855.483 213.014 852.434 211.537 848.832C209.042 842.743 208.334 833.98 209.794 827.586L209.935 827C211.09 821.672 213.41 817.688 217.245 813.855C220.498 810.603 224.031 808.16 228.733 807.714C235.29 807.093 242.241 807.521 248.833 807.509L288.497 807.46L412.302 807.398L782.194 807.343C778.005 820.855 778.288 835.863 785.009 848.55C786.442 851.256 788.102 853.865 789.81 856.404C790.568 857.531 791.624 858.644 791.964 859.963L738.207 860.053L632.273 860.071L318.845 860.063L251.862 860.118L229 860.167C224.747 860.179 219.187 860.858 215.17 859.424Z"/>
	<path fill="#E7B943" transform="scale(0.0625 0.0625)" d="M317.053 256.384C320.49 258.858 323.411 262.126 326.46 265.059L340.283 278.092L384.893 321.253L490.653 424.356L536.96 470.25C538.367 471.745 540.969 474.478 541.391 476.452L500.006 476.537C494.159 476.551 487.016 475.789 481.3 476.86C477.497 477.573 473.325 479.889 469.786 481.43L439.984 495.162L378.391 524.231C374.015 526.016 369.631 528.276 367.658 532.837C366.583 535.324 366.755 538.306 366.75 540.96L366.744 553.413L366.766 591.89L366.872 758.514L317.308 758.504L317.053 256.384Z"/>
	<path fill="#F8F8F6" transform="scale(0.0625 0.0625)" d="M556.972 146.243L834.574 146.209L834.433 476.006L601.095 476.289L601.125 397.945L601.168 374.272C601.179 369.302 600.964 364.155 601.48 359.211L600.9 358.725L556.7 315.324L556.972 146.243Z"/>
	<path transform="scale(0.0625 0.0625)" d="M640.006 354.068L798.991 354.099L798.988 379.963L639.962 380.051L640.006 354.068Z"/>
	<path transform="scale(0.0625 0.0625)" d="M639.837 431.499L799.029 431.483L799.076 457.948L639.845 457.514L639.837 431.499Z"/>
	<path transform="scale(0.0625 0.0625)" d="M577.34 275.484L799.015 275.427L798.868 302.039L577.21 302.304L577.34 275.484Z"/>
	<path transform="scale(0.0625 0.0625)" d="M612.48 202.748L798.945 202.664L798.9 229.658L764.25 229.833L577.169 229.795L577.32 202.891L612.48 202.748Z"/>
	<path fill="#E7B943" transform="scale(0.0625 0.0625)" d="M465.447 533.28C465.42 529.111 464.894 524.03 466.571 520.147L466.969 519.25C468.629 515.291 470.387 512.336 473.416 509.287C477.217 505.462 482.112 502.708 487.544 502.132C492.805 501.575 498.29 501.793 503.586 501.731L533.931 501.582L627.099 501.703L884.257 501.54L884.35 525.273L884.478 686.679L884.518 736.043C884.523 743.061 885.283 751.041 884.402 757.97C883.934 758.278 883.868 758.366 883.241 758.523C881.588 758.937 878.837 758.56 877.097 758.56L861.927 758.563L801.448 758.773L580.908 758.964L470.275 758.791C469.283 757.622 465.992 754.467 465.523 753.188C464.908 751.509 465.521 746.407 465.52 744.426L465.506 709.796L465.447 533.28Z"/>
	<path transform="scale(0.0625 0.0625)" d="M658.573 540.209L686.507 540.384L686.567 687.022L658.589 687.036L658.573 540.209Z"/>
	<path transform="scale(0.0625 0.0625)" d="M513.577 708.418L846.87 708.512L846.843 734.578L513.545 734.677L513.577 708.418Z"/>
	<path transform="scale(0.0625 0.0625)" d="M819.363 537.954L846.49 538.02L846.585 687.199L818.694 687.082L818.517 589.192L783.816 646.388L750.37 589.75L749.887 589.75L749.819 591.75L749.564 687.032L722.126 687.043L722 540.383L750.779 540.483L784.555 598.763L819.363 537.954Z"/>
	<path transform="scale(0.0625 0.0625)" d="M514.361 538.471L556.064 538.481C568.976 538.502 583.119 537.195 595.656 540.386C603.472 542.375 610.905 546.676 616.607 552.35C624.432 560.136 628.612 571.111 628.55 582.108C628.48 594.43 624.357 602.802 615.707 611.284C623.301 616.937 628.722 622.973 631.117 632.309C634.271 644.604 631.492 656.63 625.14 667.329C623.338 669.861 621.41 672.359 619.19 674.54C613.876 679.762 606.082 683.79 598.852 685.506C587.208 688.268 574.187 687.091 562.249 687.104L513.882 687.134L514.361 538.471Z"/>
	<path fill="#E7B943" transform="scale(0.0625 0.0625)" d="M541.624 564.077L570.705 564.04C576.172 564.043 582.401 563.48 587.75 564.519C590.206 564.997 592.632 566.113 594.644 567.593C598.213 570.218 600.895 574.301 601.421 578.75C602.11 584.577 600.277 588.879 596.732 593.437C594.438 595.416 591.995 596.943 589.013 597.652C584.284 598.776 578.161 598.112 573.277 598.111L541.545 598.081L541.624 564.077Z"/>
	<path fill="#E7B943" transform="scale(0.0625 0.0625)" d="M541.537 622.611L574.113 622.658C579.614 622.669 585.864 622.089 591.234 623.161C593.722 623.657 596.225 624.946 598.272 626.422C601.892 629.033 604.876 633.156 605.539 637.648L605.619 638.25L605.842 639.876C606.53 646.302 604.46 651.29 600.519 656.192C597.29 658.82 594.325 660.344 590.221 661.172C585.569 662.111 579.765 661.511 574.996 661.521L541.507 661.51L541.537 622.611Z"/>
</svg>
